<mxfile host="app.diagrams.net" agent="Mozilla/5.0 (Macintosh; Intel Mac OS X 10_15_7) AppleWebKit/537.36 (KHTML, like Gecko) Chrome/138.0.0.0 Safari/537.36" version="28.0.7">
  <diagram id="mBUOXaVF1mbaWTDL2LFQ" name="Страница — 1">
    <mxGraphModel dx="1733" dy="1008" grid="1" gridSize="10" guides="1" tooltips="1" connect="1" arrows="1" fold="1" page="1" pageScale="1" pageWidth="827" pageHeight="1169" math="0" shadow="0">
      <root>
        <mxCell id="0" />
        <mxCell id="1" parent="0" />
        <mxCell id="amxVWLV9TotgzXEuRiM_-1" value="" style="swimlane;html=1;startSize=20;fontStyle=0;collapsible=0;horizontal=1;swimlaneLine=0;fillColor=none;whiteSpace=wrap;" parent="1" vertex="1">
          <mxGeometry x="270" y="420" width="2440" height="530" as="geometry" />
        </mxCell>
        <mxCell id="amxVWLV9TotgzXEuRiM_-2" value="Пользователь" style="swimlane;html=1;startSize=20;fontStyle=0;collapsible=0;horizontal=0;swimlaneLine=1;swimlaneFillColor=#ffffff;strokeWidth=2;whiteSpace=wrap;" parent="amxVWLV9TotgzXEuRiM_-1" vertex="1">
          <mxGeometry width="2440" height="170" as="geometry" />
        </mxCell>
        <mxCell id="amxVWLV9TotgzXEuRiM_-6" value="/Start" style="points=[[0.145,0.145,0],[0.5,0,0],[0.855,0.145,0],[1,0.5,0],[0.855,0.855,0],[0.5,1,0],[0.145,0.855,0],[0,0.5,0]];shape=mxgraph.bpmn.event;html=1;verticalLabelPosition=bottom;labelBackgroundColor=#ffffff;verticalAlign=top;align=center;perimeter=ellipsePerimeter;outlineConnect=0;aspect=fixed;outline=standard;symbol=general;" parent="amxVWLV9TotgzXEuRiM_-2" vertex="1">
          <mxGeometry x="60" y="100" width="30" height="30" as="geometry" />
        </mxCell>
        <mxCell id="amxVWLV9TotgzXEuRiM_-7" value="Ввод название позиции" style="points=[[0.25,0,0],[0.5,0,0],[0.75,0,0],[1,0.25,0],[1,0.5,0],[1,0.75,0],[0.75,1,0],[0.5,1,0],[0.25,1,0],[0,0.75,0],[0,0.5,0],[0,0.25,0]];shape=mxgraph.bpmn.task2;whiteSpace=wrap;rectStyle=rounded;size=10;html=1;container=1;expand=0;collapsible=0;taskMarker=abstract;" parent="amxVWLV9TotgzXEuRiM_-2" vertex="1">
          <mxGeometry x="160" y="90" width="100" height="50" as="geometry" />
        </mxCell>
        <mxCell id="amxVWLV9TotgzXEuRiM_-23" value="Прикрепить резюме?" style="points=[[0.25,0,0],[0.5,0,0],[0.75,0,0],[1,0.25,0],[1,0.5,0],[1,0.75,0],[0.75,1,0],[0.5,1,0],[0.25,1,0],[0,0.75,0],[0,0.5,0],[0,0.25,0]];shape=mxgraph.bpmn.task2;whiteSpace=wrap;rectStyle=rounded;size=10;html=1;container=1;expand=0;collapsible=0;taskMarker=abstract;" parent="amxVWLV9TotgzXEuRiM_-2" vertex="1">
          <mxGeometry x="1180" y="70" width="100" height="50" as="geometry" />
        </mxCell>
        <mxCell id="amxVWLV9TotgzXEuRiM_-29" value="Получение сформированного отчета о требованиях&amp;nbsp;" style="points=[[0.25,0,0],[0.5,0,0],[0.75,0,0],[1,0.25,0],[1,0.5,0],[1,0.75,0],[0.75,1,0],[0.5,1,0],[0.25,1,0],[0,0.75,0],[0,0.5,0],[0,0.25,0]];shape=mxgraph.bpmn.task2;whiteSpace=wrap;rectStyle=rounded;size=10;html=1;container=1;expand=0;collapsible=0;taskMarker=receive;" parent="amxVWLV9TotgzXEuRiM_-2" vertex="1">
          <mxGeometry x="887.5" y="80" width="135" height="70" as="geometry" />
        </mxCell>
        <mxCell id="amxVWLV9TotgzXEuRiM_-34" value="" style="points=[[0.25,0.25,0],[0.5,0,0],[0.75,0.25,0],[1,0.5,0],[0.75,0.75,0],[0.5,1,0],[0.25,0.75,0],[0,0.5,0]];shape=mxgraph.bpmn.gateway2;html=1;verticalLabelPosition=bottom;labelBackgroundColor=#ffffff;verticalAlign=top;align=center;perimeter=rhombusPerimeter;outlineConnect=0;outline=none;symbol=none;gwType=exclusive;" parent="amxVWLV9TotgzXEuRiM_-2" vertex="1">
          <mxGeometry x="1350" y="70" width="50" height="50" as="geometry" />
        </mxCell>
        <mxCell id="amxVWLV9TotgzXEuRiM_-36" style="edgeStyle=orthogonalEdgeStyle;rounded=0;orthogonalLoop=1;jettySize=auto;html=1;exitX=1;exitY=0.5;exitDx=0;exitDy=0;exitPerimeter=0;entryX=0;entryY=0.5;entryDx=0;entryDy=0;entryPerimeter=0;" parent="amxVWLV9TotgzXEuRiM_-2" source="amxVWLV9TotgzXEuRiM_-23" target="amxVWLV9TotgzXEuRiM_-34" edge="1">
          <mxGeometry relative="1" as="geometry" />
        </mxCell>
        <mxCell id="amxVWLV9TotgzXEuRiM_-37" value="Прикрепление резюме" style="points=[[0.25,0,0],[0.5,0,0],[0.75,0,0],[1,0.25,0],[1,0.5,0],[1,0.75,0],[0.75,1,0],[0.5,1,0],[0.25,1,0],[0,0.75,0],[0,0.5,0],[0,0.25,0]];shape=mxgraph.bpmn.task2;whiteSpace=wrap;rectStyle=rounded;size=10;html=1;container=1;expand=0;collapsible=0;taskMarker=abstract;" parent="amxVWLV9TotgzXEuRiM_-2" vertex="1">
          <mxGeometry x="1660" y="70" width="100" height="50" as="geometry" />
        </mxCell>
        <mxCell id="amxVWLV9TotgzXEuRiM_-77" style="edgeStyle=orthogonalEdgeStyle;rounded=0;orthogonalLoop=1;jettySize=auto;html=1;exitX=1;exitY=0.5;exitDx=0;exitDy=0;exitPerimeter=0;" parent="amxVWLV9TotgzXEuRiM_-2" source="amxVWLV9TotgzXEuRiM_-62" target="amxVWLV9TotgzXEuRiM_-76" edge="1">
          <mxGeometry relative="1" as="geometry" />
        </mxCell>
        <mxCell id="amxVWLV9TotgzXEuRiM_-62" value="Получение рекомендаций и плана обучения&amp;nbsp;" style="points=[[0.25,0,0],[0.5,0,0],[0.75,0,0],[1,0.25,0],[1,0.5,0],[1,0.75,0],[0.75,1,0],[0.5,1,0],[0.25,1,0],[0,0.75,0],[0,0.5,0],[0,0.25,0]];shape=mxgraph.bpmn.task2;whiteSpace=wrap;rectStyle=rounded;size=10;html=1;container=1;expand=0;collapsible=0;taskMarker=receive;" parent="amxVWLV9TotgzXEuRiM_-2" vertex="1">
          <mxGeometry x="2132.5" y="70" width="135" height="70" as="geometry" />
        </mxCell>
        <mxCell id="amxVWLV9TotgzXEuRiM_-76" value="Конец" style="points=[[0.145,0.145,0],[0.5,0,0],[0.855,0.145,0],[1,0.5,0],[0.855,0.855,0],[0.5,1,0],[0.145,0.855,0],[0,0.5,0]];shape=mxgraph.bpmn.event;html=1;verticalLabelPosition=bottom;labelBackgroundColor=#ffffff;verticalAlign=top;align=center;perimeter=ellipsePerimeter;outlineConnect=0;aspect=fixed;outline=end;symbol=terminate2;" parent="amxVWLV9TotgzXEuRiM_-2" vertex="1">
          <mxGeometry x="2360" y="80" width="50" height="50" as="geometry" />
        </mxCell>
        <mxCell id="xP141MicqHMELCHvzka2-30" value="Конец" style="points=[[0.145,0.145,0],[0.5,0,0],[0.855,0.145,0],[1,0.5,0],[0.855,0.855,0],[0.5,1,0],[0.145,0.855,0],[0,0.5,0]];shape=mxgraph.bpmn.event;html=1;verticalLabelPosition=bottom;labelBackgroundColor=#ffffff;verticalAlign=top;align=center;perimeter=ellipsePerimeter;outlineConnect=0;aspect=fixed;outline=end;symbol=terminate2;" parent="amxVWLV9TotgzXEuRiM_-2" vertex="1">
          <mxGeometry x="1050" y="20" width="40" height="40" as="geometry" />
        </mxCell>
        <mxCell id="xP141MicqHMELCHvzka2-31" style="edgeStyle=orthogonalEdgeStyle;rounded=0;orthogonalLoop=1;jettySize=auto;html=1;exitX=0.5;exitY=0;exitDx=0;exitDy=0;exitPerimeter=0;entryX=0;entryY=0.5;entryDx=0;entryDy=0;entryPerimeter=0;" parent="amxVWLV9TotgzXEuRiM_-2" source="amxVWLV9TotgzXEuRiM_-29" target="xP141MicqHMELCHvzka2-30" edge="1">
          <mxGeometry relative="1" as="geometry" />
        </mxCell>
        <mxCell id="amxVWLV9TotgzXEuRiM_-3" value="Телеграмм-бот" style="swimlane;html=1;startSize=20;fontStyle=0;collapsible=0;horizontal=0;swimlaneLine=1;swimlaneFillColor=#ffffff;strokeWidth=2;whiteSpace=wrap;" parent="amxVWLV9TotgzXEuRiM_-1" vertex="1">
          <mxGeometry y="170" width="2440" height="220" as="geometry" />
        </mxCell>
        <mxCell id="amxVWLV9TotgzXEuRiM_-9" value="Инициализация команды&amp;nbsp;" style="points=[[0.25,0,0],[0.5,0,0],[0.75,0,0],[1,0.25,0],[1,0.5,0],[1,0.75,0],[0.75,1,0],[0.5,1,0],[0.25,1,0],[0,0.75,0],[0,0.5,0],[0,0.25,0]];shape=mxgraph.bpmn.task2;whiteSpace=wrap;rectStyle=rounded;size=10;html=1;container=1;expand=0;collapsible=0;taskMarker=service;" parent="amxVWLV9TotgzXEuRiM_-3" vertex="1">
          <mxGeometry x="30" y="70" width="90" height="50" as="geometry" />
        </mxCell>
        <mxCell id="amxVWLV9TotgzXEuRiM_-12" value="Отправка сообщения приветствия" style="points=[[0.25,0,0],[0.5,0,0],[0.75,0,0],[1,0.25,0],[1,0.5,0],[1,0.75,0],[0.75,1,0],[0.5,1,0],[0.25,1,0],[0,0.75,0],[0,0.5,0],[0,0.25,0]];shape=mxgraph.bpmn.task2;whiteSpace=wrap;rectStyle=rounded;size=10;html=1;container=1;expand=0;collapsible=0;taskMarker=abstract;" parent="amxVWLV9TotgzXEuRiM_-3" vertex="1">
          <mxGeometry x="160" y="70" width="100" height="50" as="geometry" />
        </mxCell>
        <mxCell id="amxVWLV9TotgzXEuRiM_-13" style="edgeStyle=orthogonalEdgeStyle;rounded=0;orthogonalLoop=1;jettySize=auto;html=1;exitX=1;exitY=0.5;exitDx=0;exitDy=0;exitPerimeter=0;entryX=0;entryY=0.5;entryDx=0;entryDy=0;entryPerimeter=0;" parent="amxVWLV9TotgzXEuRiM_-3" source="amxVWLV9TotgzXEuRiM_-9" target="amxVWLV9TotgzXEuRiM_-12" edge="1">
          <mxGeometry relative="1" as="geometry" />
        </mxCell>
        <mxCell id="amxVWLV9TotgzXEuRiM_-18" value="Запрос к AI" style="points=[[0.25,0,0],[0.5,0,0],[0.75,0,0],[1,0.25,0],[1,0.5,0],[1,0.75,0],[0.75,1,0],[0.5,1,0],[0.25,1,0],[0,0.75,0],[0,0.5,0],[0,0.25,0]];shape=mxgraph.bpmn.task2;whiteSpace=wrap;rectStyle=rounded;size=10;html=1;container=1;expand=0;collapsible=0;taskMarker=service;" parent="amxVWLV9TotgzXEuRiM_-3" vertex="1">
          <mxGeometry x="350" y="70" width="90" height="50" as="geometry" />
        </mxCell>
        <mxCell id="amxVWLV9TotgzXEuRiM_-25" value="Формирования сообщения&amp;nbsp;" style="points=[[0.25,0,0],[0.5,0,0],[0.75,0,0],[1,0.25,0],[1,0.5,0],[1,0.75,0],[0.75,1,0],[0.5,1,0],[0.25,1,0],[0,0.75,0],[0,0.5,0],[0,0.25,0]];shape=mxgraph.bpmn.task2;whiteSpace=wrap;rectStyle=rounded;size=10;html=1;container=1;expand=0;collapsible=0;taskMarker=abstract;" parent="amxVWLV9TotgzXEuRiM_-3" vertex="1">
          <mxGeometry x="630" y="80" width="100" height="50" as="geometry" />
        </mxCell>
        <mxCell id="amxVWLV9TotgzXEuRiM_-27" value="Отправка сообщения&amp;nbsp;" style="points=[[0.25,0,0],[0.5,0,0],[0.75,0,0],[1,0.25,0],[1,0.5,0],[1,0.75,0],[0.75,1,0],[0.5,1,0],[0.25,1,0],[0,0.75,0],[0,0.5,0],[0,0.25,0]];shape=mxgraph.bpmn.task2;whiteSpace=wrap;rectStyle=rounded;size=10;html=1;container=1;expand=0;collapsible=0;taskMarker=send;" parent="amxVWLV9TotgzXEuRiM_-3" vertex="1">
          <mxGeometry x="770" y="80" width="100" height="50" as="geometry" />
        </mxCell>
        <mxCell id="amxVWLV9TotgzXEuRiM_-28" style="edgeStyle=orthogonalEdgeStyle;rounded=0;orthogonalLoop=1;jettySize=auto;html=1;exitX=1;exitY=0.5;exitDx=0;exitDy=0;exitPerimeter=0;entryX=0;entryY=0.5;entryDx=0;entryDy=0;entryPerimeter=0;" parent="amxVWLV9TotgzXEuRiM_-3" source="amxVWLV9TotgzXEuRiM_-25" target="amxVWLV9TotgzXEuRiM_-27" edge="1">
          <mxGeometry relative="1" as="geometry" />
        </mxCell>
        <mxCell id="xP141MicqHMELCHvzka2-18" style="edgeStyle=orthogonalEdgeStyle;rounded=0;orthogonalLoop=1;jettySize=auto;html=1;exitX=1;exitY=0.5;exitDx=0;exitDy=0;exitPerimeter=0;" parent="amxVWLV9TotgzXEuRiM_-3" source="amxVWLV9TotgzXEuRiM_-31" target="amxVWLV9TotgzXEuRiM_-24" edge="1">
          <mxGeometry relative="1" as="geometry" />
        </mxCell>
        <mxCell id="amxVWLV9TotgzXEuRiM_-31" value="" style="points=[[0.25,0.25,0],[0.5,0,0],[0.75,0.25,0],[1,0.5,0],[0.75,0.75,0],[0.5,1,0],[0.25,0.75,0],[0,0.5,0]];shape=mxgraph.bpmn.gateway2;html=1;verticalLabelPosition=bottom;labelBackgroundColor=#ffffff;verticalAlign=top;align=center;perimeter=rhombusPerimeter;outlineConnect=0;outline=none;symbol=none;gwType=parallel;" parent="amxVWLV9TotgzXEuRiM_-3" vertex="1">
          <mxGeometry x="930" y="80" width="50" height="50" as="geometry" />
        </mxCell>
        <mxCell id="amxVWLV9TotgzXEuRiM_-30" style="edgeStyle=orthogonalEdgeStyle;rounded=0;orthogonalLoop=1;jettySize=auto;html=1;exitX=1;exitY=0.5;exitDx=0;exitDy=0;exitPerimeter=0;entryX=0;entryY=0.5;entryDx=0;entryDy=0;entryPerimeter=0;" parent="amxVWLV9TotgzXEuRiM_-3" source="amxVWLV9TotgzXEuRiM_-27" target="amxVWLV9TotgzXEuRiM_-31" edge="1">
          <mxGeometry relative="1" as="geometry" />
        </mxCell>
        <mxCell id="amxVWLV9TotgzXEuRiM_-24" value="Запрос на отправку резюме" style="points=[[0.25,0,0],[0.5,0,0],[0.75,0,0],[1,0.25,0],[1,0.5,0],[1,0.75,0],[0.75,1,0],[0.5,1,0],[0.25,1,0],[0,0.75,0],[0,0.5,0],[0,0.25,0]];shape=mxgraph.bpmn.task2;whiteSpace=wrap;rectStyle=rounded;size=10;html=1;container=1;expand=0;collapsible=0;taskMarker=abstract;" parent="amxVWLV9TotgzXEuRiM_-3" vertex="1">
          <mxGeometry x="1040" y="80" width="100" height="50" as="geometry" />
        </mxCell>
        <mxCell id="amxVWLV9TotgzXEuRiM_-16" value="Ожидание резюме&amp;nbsp;" style="points=[[0.25,0,0],[0.5,0,0],[0.75,0,0],[1,0.25,0],[1,0.5,0],[1,0.75,0],[0.75,1,0],[0.5,1,0],[0.25,1,0],[0,0.75,0],[0,0.5,0],[0,0.25,0]];shape=mxgraph.bpmn.task2;whiteSpace=wrap;rectStyle=rounded;size=10;html=1;container=1;expand=0;collapsible=0;taskMarker=service;" parent="amxVWLV9TotgzXEuRiM_-3" vertex="1">
          <mxGeometry x="1510" y="80" width="90" height="50" as="geometry" />
        </mxCell>
        <mxCell id="amxVWLV9TotgzXEuRiM_-43" value="Обработка резюме&amp;nbsp;" style="points=[[0.25,0,0],[0.5,0,0],[0.75,0,0],[1,0.25,0],[1,0.5,0],[1,0.75,0],[0.75,1,0],[0.5,1,0],[0.25,1,0],[0,0.75,0],[0,0.5,0],[0,0.25,0]];shape=mxgraph.bpmn.task2;whiteSpace=wrap;rectStyle=rounded;size=10;html=1;container=1;expand=0;collapsible=0;taskMarker=service;" parent="amxVWLV9TotgzXEuRiM_-3" vertex="1">
          <mxGeometry x="1850" y="80" width="90" height="50" as="geometry" />
        </mxCell>
        <mxCell id="amxVWLV9TotgzXEuRiM_-53" value="Отправка сообщение" style="points=[[0.25,0,0],[0.5,0,0],[0.75,0,0],[1,0.25,0],[1,0.5,0],[1,0.75,0],[0.75,1,0],[0.5,1,0],[0.25,1,0],[0,0.75,0],[0,0.5,0],[0,0.25,0]];shape=mxgraph.bpmn.task2;whiteSpace=wrap;rectStyle=rounded;size=10;html=1;container=1;expand=0;collapsible=0;taskMarker=send;" parent="amxVWLV9TotgzXEuRiM_-3" vertex="1">
          <mxGeometry x="2150" y="65" width="100" height="55" as="geometry" />
        </mxCell>
        <mxCell id="xP141MicqHMELCHvzka2-24" value="" style="shape=stencil(lVfJctswDP0aXTEkwfWcpv+RmTi1pq6dcZwuf1+oLhUDkl7rmyTiCdvDwoEf3vZPr7shuLfL+fR192N8vuwH/jSEMB73u/N4kaeBHwd+eDmdd1/Op/fj8/X99WmSnJ6+nb5Pf/h5xXlH7CdUcL/+fiHHfz58vsofxuOtfKKSlHwkH7blQ6BUlHyjCP4fCtWo7YnU6jaAEzmtIDjKGQAaOa0hpK5zFRCZqtbAgQrQkMSAqgEZ+pA8NW1SlLA1AKg2qlHCmrYBOVFrCpAiVb8NKNzT2gFZiAFMKq0fz4BEEYS1BmKtoTgqQENtlHRYS6YKuNdEQ1aAmiA1WqKgfaiZEmBrK5QNoHZ2rQOadbo5ciBx3sm50whxCyBERdZet9j5uA6oxJp9LUNuyLHXiZBfJJQIpmh8ECMRwNlE3MRhnRyFfLtHRY0LmyrMtfA18CJMSIOj5m0iCvLBUTKZmxm8DvAUTOZc74ZbPlRTEcJXpEEqwgCkIlBVV8uNqeaASc3bihAA0iBBtFUtfERVLc1XN0shS8QFUY0PrZfIVslVQz7fG/T/AriTZdMkAxCnkUnzxLmht0MaJKwGIE6j3ucXbaNRQ1yqFBZdoKKKuxdQ/IKtgSIoURlR2cwgGVpgBmUpUV3TopPRaGe7C2SZGcAHWR5MX5oGL0hcjHYspgJ3Aa59zM4ABzMt20vWJslK5IHTsuMZDaITrVgh287HDFesIMdmiRMjgQafKejEyS8iKFE/T9l5BOXeqdbJZ13wvi8H6y4Qm64EF2Ohmc5BgePN9YE8swiyTsaG4RDswYudZB6mG+JmmjMFQB9nt+HQx9xGZExr9HA/EupqIsi2DsSjLXjXF431BkEuGHG0tghpkhVHk6l3gg9xyJl7L3f/lJeHj5vky3g4XC+it+f25imfrrdWfvwN);lineShape=1;strokeColor=default;" parent="amxVWLV9TotgzXEuRiM_-3" vertex="1">
          <mxGeometry x="997.6426207803142" y="95.93155969869599" width="13.518591514887703" height="18.140786550227403" as="geometry" />
        </mxCell>
        <mxCell id="nimbiM6RA5SE8D9F9rd2-1" value="Ожидание ввода позиции" style="points=[[0.25,0,0],[0.5,0,0],[0.75,0,0],[1,0.25,0],[1,0.5,0],[1,0.75,0],[0.75,1,0],[0.5,1,0],[0.25,1,0],[0,0.75,0],[0,0.5,0],[0,0.25,0]];shape=mxgraph.bpmn.task2;whiteSpace=wrap;rectStyle=rounded;size=10;html=1;container=1;expand=0;collapsible=0;taskMarker=receive;" vertex="1" parent="amxVWLV9TotgzXEuRiM_-3">
          <mxGeometry x="1323" y="80" width="107" height="60" as="geometry" />
        </mxCell>
        <mxCell id="nimbiM6RA5SE8D9F9rd2-2" value="Конец" style="points=[[0.145,0.145,0],[0.5,0,0],[0.855,0.145,0],[1,0.5,0],[0.855,0.855,0],[0.5,1,0],[0.145,0.855,0],[0,0.5,0]];shape=mxgraph.bpmn.event;html=1;verticalLabelPosition=bottom;labelBackgroundColor=#ffffff;verticalAlign=top;align=center;perimeter=ellipsePerimeter;outlineConnect=0;aspect=fixed;outline=end;symbol=terminate2;" vertex="1" parent="amxVWLV9TotgzXEuRiM_-3">
          <mxGeometry x="1470" y="150" width="40" height="40" as="geometry" />
        </mxCell>
        <mxCell id="nimbiM6RA5SE8D9F9rd2-3" style="edgeStyle=orthogonalEdgeStyle;rounded=0;orthogonalLoop=1;jettySize=auto;html=1;exitX=0.5;exitY=1;exitDx=0;exitDy=0;exitPerimeter=0;entryX=0;entryY=0.5;entryDx=0;entryDy=0;entryPerimeter=0;" edge="1" parent="amxVWLV9TotgzXEuRiM_-3" source="nimbiM6RA5SE8D9F9rd2-1" target="nimbiM6RA5SE8D9F9rd2-2">
          <mxGeometry relative="1" as="geometry" />
        </mxCell>
        <mxCell id="amxVWLV9TotgzXEuRiM_-4" value="AI-агент" style="swimlane;html=1;startSize=20;fontStyle=0;collapsible=0;horizontal=0;swimlaneLine=1;swimlaneFillColor=#ffffff;strokeWidth=2;whiteSpace=wrap;" parent="amxVWLV9TotgzXEuRiM_-1" vertex="1">
          <mxGeometry y="390" width="2440" height="140" as="geometry" />
        </mxCell>
        <mxCell id="amxVWLV9TotgzXEuRiM_-17" value="Парсинг требований с запрашиваемой позиции&amp;nbsp;" style="points=[[0.25,0,0],[0.5,0,0],[0.75,0,0],[1,0.25,0],[1,0.5,0],[1,0.75,0],[0.75,1,0],[0.5,1,0],[0.25,1,0],[0,0.75,0],[0,0.5,0],[0,0.25,0]];shape=mxgraph.bpmn.task2;whiteSpace=wrap;rectStyle=rounded;size=10;html=1;container=1;expand=0;collapsible=0;taskMarker=service;" parent="amxVWLV9TotgzXEuRiM_-4" vertex="1">
          <mxGeometry x="350" y="30" width="90" height="70" as="geometry" />
        </mxCell>
        <mxCell id="amxVWLV9TotgzXEuRiM_-15" value="Составление отчета собранных требований" style="points=[[0.25,0,0],[0.5,0,0],[0.75,0,0],[1,0.25,0],[1,0.5,0],[1,0.75,0],[0.75,1,0],[0.5,1,0],[0.25,1,0],[0,0.75,0],[0,0.5,0],[0,0.25,0]];shape=mxgraph.bpmn.task2;whiteSpace=wrap;rectStyle=rounded;size=10;html=1;container=1;expand=0;collapsible=0;taskMarker=abstract;" parent="amxVWLV9TotgzXEuRiM_-4" vertex="1">
          <mxGeometry x="490" y="35" width="100" height="60" as="geometry" />
        </mxCell>
        <mxCell id="amxVWLV9TotgzXEuRiM_-21" style="edgeStyle=orthogonalEdgeStyle;rounded=0;orthogonalLoop=1;jettySize=auto;html=1;exitX=1;exitY=0.5;exitDx=0;exitDy=0;exitPerimeter=0;entryX=0;entryY=0.5;entryDx=0;entryDy=0;entryPerimeter=0;" parent="amxVWLV9TotgzXEuRiM_-4" source="amxVWLV9TotgzXEuRiM_-17" target="amxVWLV9TotgzXEuRiM_-15" edge="1">
          <mxGeometry relative="1" as="geometry" />
        </mxCell>
        <mxCell id="amxVWLV9TotgzXEuRiM_-22" value="Анализ резюме&amp;nbsp;" style="points=[[0.25,0,0],[0.5,0,0],[0.75,0,0],[1,0.25,0],[1,0.5,0],[1,0.75,0],[0.75,1,0],[0.5,1,0],[0.25,1,0],[0,0.75,0],[0,0.5,0],[0,0.25,0]];shape=mxgraph.bpmn.task2;whiteSpace=wrap;rectStyle=rounded;size=10;html=1;container=1;expand=0;collapsible=0;taskMarker=abstract;" parent="amxVWLV9TotgzXEuRiM_-4" vertex="1">
          <mxGeometry x="1845" y="40" width="100" height="50" as="geometry" />
        </mxCell>
        <mxCell id="amxVWLV9TotgzXEuRiM_-46" value="Сравнение с требованиями" style="points=[[0.25,0,0],[0.5,0,0],[0.75,0,0],[1,0.25,0],[1,0.5,0],[1,0.75,0],[0.75,1,0],[0.5,1,0],[0.25,1,0],[0,0.75,0],[0,0.5,0],[0,0.25,0]];shape=mxgraph.bpmn.task2;whiteSpace=wrap;rectStyle=rounded;size=10;html=1;container=1;expand=0;collapsible=0;taskMarker=abstract;" parent="amxVWLV9TotgzXEuRiM_-4" vertex="1">
          <mxGeometry x="1990" y="40" width="100" height="50" as="geometry" />
        </mxCell>
        <mxCell id="amxVWLV9TotgzXEuRiM_-47" style="edgeStyle=orthogonalEdgeStyle;rounded=0;orthogonalLoop=1;jettySize=auto;html=1;exitX=1;exitY=0.5;exitDx=0;exitDy=0;exitPerimeter=0;entryX=0;entryY=0.5;entryDx=0;entryDy=0;entryPerimeter=0;" parent="amxVWLV9TotgzXEuRiM_-4" source="amxVWLV9TotgzXEuRiM_-22" target="amxVWLV9TotgzXEuRiM_-46" edge="1">
          <mxGeometry relative="1" as="geometry" />
        </mxCell>
        <mxCell id="amxVWLV9TotgzXEuRiM_-48" value="Формирование рекомендаций обучения" style="points=[[0.25,0,0],[0.5,0,0],[0.75,0,0],[1,0.25,0],[1,0.5,0],[1,0.75,0],[0.75,1,0],[0.5,1,0],[0.25,1,0],[0,0.75,0],[0,0.5,0],[0,0.25,0]];shape=mxgraph.bpmn.task2;whiteSpace=wrap;rectStyle=rounded;size=10;html=1;container=1;expand=0;collapsible=0;taskMarker=abstract;" parent="amxVWLV9TotgzXEuRiM_-4" vertex="1">
          <mxGeometry x="2150" y="40" width="100" height="50" as="geometry" />
        </mxCell>
        <mxCell id="amxVWLV9TotgzXEuRiM_-49" style="edgeStyle=orthogonalEdgeStyle;rounded=0;orthogonalLoop=1;jettySize=auto;html=1;exitX=1;exitY=0.5;exitDx=0;exitDy=0;exitPerimeter=0;entryX=0;entryY=0.5;entryDx=0;entryDy=0;entryPerimeter=0;" parent="amxVWLV9TotgzXEuRiM_-4" source="amxVWLV9TotgzXEuRiM_-46" target="amxVWLV9TotgzXEuRiM_-48" edge="1">
          <mxGeometry relative="1" as="geometry" />
        </mxCell>
        <mxCell id="amxVWLV9TotgzXEuRiM_-10" style="edgeStyle=orthogonalEdgeStyle;rounded=0;orthogonalLoop=1;jettySize=auto;html=1;exitX=0.5;exitY=1;exitDx=0;exitDy=0;exitPerimeter=0;entryX=0.5;entryY=0;entryDx=0;entryDy=0;entryPerimeter=0;" parent="amxVWLV9TotgzXEuRiM_-1" source="amxVWLV9TotgzXEuRiM_-6" target="amxVWLV9TotgzXEuRiM_-9" edge="1">
          <mxGeometry relative="1" as="geometry" />
        </mxCell>
        <mxCell id="amxVWLV9TotgzXEuRiM_-19" style="edgeStyle=orthogonalEdgeStyle;rounded=0;orthogonalLoop=1;jettySize=auto;html=1;exitX=1;exitY=0.5;exitDx=0;exitDy=0;exitPerimeter=0;entryX=0;entryY=0.5;entryDx=0;entryDy=0;entryPerimeter=0;" parent="amxVWLV9TotgzXEuRiM_-1" source="amxVWLV9TotgzXEuRiM_-7" target="amxVWLV9TotgzXEuRiM_-18" edge="1">
          <mxGeometry relative="1" as="geometry" />
        </mxCell>
        <mxCell id="amxVWLV9TotgzXEuRiM_-35" style="edgeStyle=orthogonalEdgeStyle;rounded=0;orthogonalLoop=1;jettySize=auto;html=1;exitX=1;exitY=0.5;exitDx=0;exitDy=0;exitPerimeter=0;entryX=0;entryY=0.5;entryDx=0;entryDy=0;entryPerimeter=0;" parent="amxVWLV9TotgzXEuRiM_-1" source="amxVWLV9TotgzXEuRiM_-24" target="amxVWLV9TotgzXEuRiM_-23" edge="1">
          <mxGeometry relative="1" as="geometry">
            <mxPoint x="1390" y="130" as="targetPoint" />
          </mxGeometry>
        </mxCell>
        <mxCell id="amxVWLV9TotgzXEuRiM_-40" value="НЕТ" style="edgeStyle=orthogonalEdgeStyle;rounded=0;orthogonalLoop=1;jettySize=auto;html=1;exitX=0.5;exitY=1;exitDx=0;exitDy=0;exitPerimeter=0;entryX=0.5;entryY=0;entryDx=0;entryDy=0;entryPerimeter=0;" parent="amxVWLV9TotgzXEuRiM_-1" source="amxVWLV9TotgzXEuRiM_-34" target="nimbiM6RA5SE8D9F9rd2-1" edge="1">
          <mxGeometry relative="1" as="geometry">
            <mxPoint x="1375" y="250" as="targetPoint" />
          </mxGeometry>
        </mxCell>
        <mxCell id="amxVWLV9TotgzXEuRiM_-42" style="edgeStyle=orthogonalEdgeStyle;rounded=0;orthogonalLoop=1;jettySize=auto;html=1;exitX=1;exitY=0.5;exitDx=0;exitDy=0;exitPerimeter=0;entryX=0;entryY=0.5;entryDx=0;entryDy=0;entryPerimeter=0;" parent="amxVWLV9TotgzXEuRiM_-1" source="amxVWLV9TotgzXEuRiM_-16" target="amxVWLV9TotgzXEuRiM_-37" edge="1">
          <mxGeometry relative="1" as="geometry" />
        </mxCell>
        <mxCell id="amxVWLV9TotgzXEuRiM_-44" style="edgeStyle=orthogonalEdgeStyle;rounded=0;orthogonalLoop=1;jettySize=auto;html=1;exitX=1;exitY=0.5;exitDx=0;exitDy=0;exitPerimeter=0;entryX=0;entryY=0.5;entryDx=0;entryDy=0;entryPerimeter=0;" parent="amxVWLV9TotgzXEuRiM_-1" source="amxVWLV9TotgzXEuRiM_-37" target="amxVWLV9TotgzXEuRiM_-43" edge="1">
          <mxGeometry relative="1" as="geometry" />
        </mxCell>
        <mxCell id="amxVWLV9TotgzXEuRiM_-52" style="edgeStyle=orthogonalEdgeStyle;rounded=0;orthogonalLoop=1;jettySize=auto;html=1;exitX=0.5;exitY=0;exitDx=0;exitDy=0;exitPerimeter=0;entryX=0.5;entryY=1;entryDx=0;entryDy=0;entryPerimeter=0;" parent="amxVWLV9TotgzXEuRiM_-1" source="amxVWLV9TotgzXEuRiM_-48" target="amxVWLV9TotgzXEuRiM_-53" edge="1">
          <mxGeometry relative="1" as="geometry">
            <mxPoint x="2530" y="400" as="targetPoint" />
          </mxGeometry>
        </mxCell>
        <mxCell id="amxVWLV9TotgzXEuRiM_-63" style="edgeStyle=orthogonalEdgeStyle;rounded=0;orthogonalLoop=1;jettySize=auto;html=1;exitX=0.5;exitY=0;exitDx=0;exitDy=0;exitPerimeter=0;entryX=0.5;entryY=1;entryDx=0;entryDy=0;entryPerimeter=0;" parent="amxVWLV9TotgzXEuRiM_-1" source="amxVWLV9TotgzXEuRiM_-53" target="amxVWLV9TotgzXEuRiM_-62" edge="1">
          <mxGeometry relative="1" as="geometry" />
        </mxCell>
        <mxCell id="amxVWLV9TotgzXEuRiM_-65" style="edgeStyle=orthogonalEdgeStyle;rounded=0;orthogonalLoop=1;jettySize=auto;html=1;exitX=0.5;exitY=0;exitDx=0;exitDy=0;exitPerimeter=0;entryX=0.5;entryY=1;entryDx=0;entryDy=0;entryPerimeter=0;" parent="amxVWLV9TotgzXEuRiM_-1" source="amxVWLV9TotgzXEuRiM_-12" target="amxVWLV9TotgzXEuRiM_-7" edge="1">
          <mxGeometry relative="1" as="geometry" />
        </mxCell>
        <mxCell id="amxVWLV9TotgzXEuRiM_-66" style="edgeStyle=orthogonalEdgeStyle;rounded=0;orthogonalLoop=1;jettySize=auto;html=1;exitX=0.5;exitY=1;exitDx=0;exitDy=0;exitPerimeter=0;entryX=0.5;entryY=0;entryDx=0;entryDy=0;entryPerimeter=0;" parent="amxVWLV9TotgzXEuRiM_-1" source="amxVWLV9TotgzXEuRiM_-18" target="amxVWLV9TotgzXEuRiM_-17" edge="1">
          <mxGeometry relative="1" as="geometry" />
        </mxCell>
        <mxCell id="amxVWLV9TotgzXEuRiM_-68" style="edgeStyle=orthogonalEdgeStyle;rounded=0;orthogonalLoop=1;jettySize=auto;html=1;exitX=1;exitY=0.5;exitDx=0;exitDy=0;exitPerimeter=0;entryX=0;entryY=0.5;entryDx=0;entryDy=0;entryPerimeter=0;" parent="amxVWLV9TotgzXEuRiM_-1" source="amxVWLV9TotgzXEuRiM_-15" target="amxVWLV9TotgzXEuRiM_-25" edge="1">
          <mxGeometry relative="1" as="geometry" />
        </mxCell>
        <mxCell id="amxVWLV9TotgzXEuRiM_-70" style="edgeStyle=orthogonalEdgeStyle;rounded=0;orthogonalLoop=1;jettySize=auto;html=1;exitX=0.5;exitY=0;exitDx=0;exitDy=0;exitPerimeter=0;entryX=0.5;entryY=1;entryDx=0;entryDy=0;entryPerimeter=0;" parent="amxVWLV9TotgzXEuRiM_-1" source="amxVWLV9TotgzXEuRiM_-31" target="amxVWLV9TotgzXEuRiM_-29" edge="1">
          <mxGeometry relative="1" as="geometry" />
        </mxCell>
        <mxCell id="amxVWLV9TotgzXEuRiM_-75" style="edgeStyle=orthogonalEdgeStyle;rounded=0;orthogonalLoop=1;jettySize=auto;html=1;exitX=0.5;exitY=1;exitDx=0;exitDy=0;exitPerimeter=0;" parent="amxVWLV9TotgzXEuRiM_-1" source="amxVWLV9TotgzXEuRiM_-43" target="amxVWLV9TotgzXEuRiM_-22" edge="1">
          <mxGeometry relative="1" as="geometry" />
        </mxCell>
        <mxCell id="xP141MicqHMELCHvzka2-26" value="" style="edgeStyle=orthogonalEdgeStyle;rounded=0;orthogonalLoop=1;jettySize=auto;html=1;exitX=1;exitY=0.5;exitDx=0;exitDy=0;exitPerimeter=0;entryX=0.5;entryY=0;entryDx=0;entryDy=0;entryPerimeter=0;" parent="amxVWLV9TotgzXEuRiM_-1" source="amxVWLV9TotgzXEuRiM_-34" target="amxVWLV9TotgzXEuRiM_-16" edge="1">
          <mxGeometry relative="1" as="geometry">
            <mxPoint x="1476.7592957574439" y="85.93000000000006" as="targetPoint" />
            <mxPoint x="1680" y="515" as="sourcePoint" />
          </mxGeometry>
        </mxCell>
        <mxCell id="xP141MicqHMELCHvzka2-27" value="ДА" style="edgeLabel;html=1;align=center;verticalAlign=middle;resizable=0;points=[];" parent="xP141MicqHMELCHvzka2-26" vertex="1" connectable="0">
          <mxGeometry x="-0.0417" y="-1" relative="1" as="geometry">
            <mxPoint as="offset" />
          </mxGeometry>
        </mxCell>
        <mxCell id="xP141MicqHMELCHvzka2-28" value="" style="shape=stencil(lVfLctswDPwaXTEk+D6n6X9kJk7tqWtnHKdt/j5QHboCTG0mN1vCEgR28dAU7l62D8+bid3L+XT8ufmzezxvp/BtYt4dtpvT7iy/pnA/hbun42nz43R8PTxe/j8/zJbzr1/H3/MJfy847ynVGcXu7eMJJf734PvFfr87LO0zuabsI1W/bj+/Dvp8JgcccKNgLlTJAQ8hUCwKwKH7HAMalagBlVpcB8REQccc5IlbBySmzDpJ3H0OAdlR0FeKtfscA4QGnaXZJwAUTzFrgKQ1A4B40GnNgRgQVz25pAGNErhSFWnoGIqktawDWiPWgNooAx68c+ScQjRPDbvImuoWKQIXrfbXV0Du5I8BmVinaT4C6LuJvnXUcsmPmh0DREya6kUexkwU4mBdZFBCQl1kGwRqG5W7dhZpKoCI6qhmS0TCAJsmJp+gXr0OWtRUQEVIDMUACmUESOS9BmRYc1VKUreB+QjAg6jZa7kKM1Df0apPPKASEppqszGgZilCMA1foqq45KpuNHNUGNB0WqVEYAzS3o28EzVUo8W2MnlSUclJPRiA9CoUg+81vwA0pNZKnC2gAh7qdUQtShRJQ+RteSiwMUkBsbdpDehKXwXkQsEUkOvMjAGSVs20jBQPZlAq1HSW8rUGx4BgB2+WtgDEFwsl7UEGL5KGrCdGS8l3/a4tQMFsG6mLZQzwfS5f9xnxCYKWhcpp8c1LFxq8xW4bnKEHWQrtzJIFCAR9M0XlBHgjamZ1gB3A9VK56ghS4Ih1QmW4gXZxs5UkSiA5jrw2j30PWjG37PZNbiUzpmQY7gpsT/f9dmOtUdPmrqt7XF6UkjF3INRix98new5VZ8wZsOpvaHVUwOW//C31qb38+P/h9rTb7y/ffcv39kNPHl0+EsP9Ow==);lineShape=1;strokeColor=default;" parent="1" vertex="1">
          <mxGeometry x="1705.6132237504662" y="507.1132291168542" width="13.086948619085888" height="16.981052750967592" as="geometry" />
        </mxCell>
      </root>
    </mxGraphModel>
  </diagram>
</mxfile>
